<?xml version="1.0" encoding="UTF-8"?>
<svg xmlns="http://www.w3.org/2000/svg" viewBox="0 0 248.49 285.72">
  <defs>
    <style>
      .cls-1 {
        fill: #fff;
      }
    </style>
  </defs>
  <g id="icon_white" data-name="icon white">
    <path class="cls-1" d="M136.52,9.55c-3.5-7.22-12.18-10.23-19.4-6.74-3.48,1.69-5.89,4.64-7.35,7.96L3.17,231.68H244.63S136.52,9.55,136.52,9.55Zm68.74,214.95c-1.1,2.04-2.9,3.56-5.22,3.56H8.95L103.31,32.52v.05c1.16-2.13,3.43-3.58,6.02-3.58s5.04,1.56,6.15,3.84h0l89.46,184.68c1.03,2.19,1.54,4.71,.31,7Z"/>
  </g>
  <g id="text_white" data-name="text white">
    <g>
      <path class="cls-1" d="M2.35,252.71H12.95c2.62,0,4.62,.7,6.02,2.17,1.02,1.05,1.61,2.49,1.61,4.27,0,2.77-1.54,4.48-4.03,5.25v.1c2.83,.67,5.04,2.7,5.04,6.06,0,1.92-.67,3.57-1.82,4.8-1.4,1.5-3.57,2.38-6.27,2.38H2.35v-25.03Zm10.22,10.71c3.04,0,4.87-1.5,4.87-4.1,0-2.42-1.64-3.88-4.45-3.88H5.5v7.98h7.07Zm.8,11.48c1.79,0,3.08-.46,3.92-1.26,.7-.73,1.12-1.71,1.12-2.91,0-3.12-2.21-4.66-5.25-4.66H5.5v8.82h7.88Z"/>
      <path class="cls-1" d="M24.46,269.65v-16.94h3.15v16.63c0,4.27,2.42,6.09,6.55,6.09s6.34-1.82,6.34-6.09v-16.63h3.15v16.94c0,6.06-4.24,8.47-9.59,8.47s-9.59-2.42-9.59-8.47Z"/>
      <path class="cls-1" d="M47.92,252.71h11.69c4.41,0,7.39,2.76,7.39,6.86,0,3.05-1.33,5.22-4.34,6.2v.11c2.55,.91,3.36,2.66,3.61,6.37,.28,4.03,.7,5.04,1.16,5.36v.14h-3.4c-.53-.46-.63-1.4-.91-5.6-.25-3.68-1.72-4.97-5.08-4.97h-6.97v10.57h-3.15v-25.03Zm3.15,11.9h7.42c3.5,0,5.25-1.75,5.25-4.59,0-3.04-1.4-4.58-5.08-4.58h-7.6v9.17Z"/>
      <path class="cls-1" d="M70.8,252.71h17.68v2.76h-14.53v7.91h13.2v2.66h-13.2v8.79h14.95v2.91h-18.1v-25.03Z"/>
      <path class="cls-1" d="M100.13,252.71h3.54l9.24,25.03h-3.43l-2.66-7.63h-9.98l-2.7,7.63h-3.22l9.21-25.03Zm-2.38,14.84h8.19l-2.87-8.4c-.49-1.4-1.12-3.54-1.12-3.54h-.07s-.67,2.1-1.16,3.54l-2.98,8.4Z"/>
      <path class="cls-1" d="M114.66,269.65v-16.94h3.15v16.63c0,4.27,2.42,6.09,6.55,6.09s6.34-1.82,6.34-6.09v-16.63h3.15v16.94c0,6.06-4.24,8.47-9.59,8.47s-9.59-2.42-9.59-8.47Z"/>
      <path class="cls-1" d="M143.67,252.71h9.1c7.53,0,11.1,5.11,11.1,12.6s-3.81,12.43-11.34,12.43h-8.86v-25.03Zm8.75,22.26c5.88,0,8.23-3.78,8.23-9.66s-2.1-9.87-7.98-9.87h-5.85v19.53h5.6Z"/>
      <path class="cls-1" d="M167.61,252.71h17.68v2.76h-14.53v7.91h13.2v2.66h-13.2v8.79h14.95v2.91h-18.1v-25.03Z"/>
      <path class="cls-1" d="M189.38,252.71h3.15v22.12h13.13v2.91h-16.28v-25.03Z"/>
      <path class="cls-1" d="M203.7,252.71h19.81v2.76h-8.33v22.26h-3.15v-22.26h-8.33v-2.76Z"/>
      <path class="cls-1" d="M230.68,252.71h3.54l9.24,25.03h-3.43l-2.66-7.63h-9.98l-2.7,7.63h-3.22l9.21-25.03Zm-2.38,14.84h8.19l-2.87-8.4c-.49-1.4-1.12-3.54-1.12-3.54h-.07s-.67,2.1-1.15,3.54l-2.98,8.4Z"/>
    </g>
  </g>
</svg>