<svg width="177" height="228" viewBox="0 0 177 228" fill="none" xmlns="http://www.w3.org/2000/svg">
<path d="M140.72 106.94C137.15 105.3 135.61 102.31 136.34 98.56C136.76 96.44 138.11 94.67 140.01 93.63L140 93.62C154.17 84.73 163.64 68.84 163.64 50.74C163.64 23.41 142.06 1.09 115.25 0.349998V0.330002H0.329987V227.01H115.25V227C149.06 226.26 176.34 198.24 176.34 163.9C176.34 138.81 161.76 117.1 140.72 106.94ZM3.95999 18.92C3.95999 10.23 11 3.96 18.84 3.96H113.87C139.31 3.96 160.01 24.94 160.01 50.74C160.01 76.54 139.31 97.52 113.87 97.52H3.95999V18.92V18.92ZM113.87 197.98H3.95999V129.83H113.87C132.3 129.83 147.3 145.11 147.3 163.9C147.3 182.69 132.31 197.98 113.87 197.98Z" fill="#001FD4"/>
</svg>
