<?xml version="1.0" encoding="utf-8"?>
<!-- Generator: Adobe Illustrator 26.0.2, SVG Export Plug-In . SVG Version: 6.00 Build 0)  -->
<svg version="1.1" id="Layer_1" xmlns="http://www.w3.org/2000/svg" xmlns:xlink="http://www.w3.org/1999/xlink" x="0px" y="0px"
	 viewBox="0 0 256 192" style="enable-background:new 0 0 256 192;" xml:space="preserve">
<style type="text/css">
	.st0{fill:#001FD4;}
</style>
<path class="st0" d="M-137.48,167.71c-3.5-7.22-12.18-10.23-19.4-6.74c-3.48,1.69-5.89,4.64-7.35,7.96l-106.6,220.91h241.46
	L-137.48,167.71z M-68.74,382.66c-1.1,2.04-2.9,3.56-5.22,3.56h-191.09l94.36-195.54l0,0.05c1.16-2.13,3.42-3.58,6.02-3.58
	c2.7,0,5.04,1.56,6.15,3.84l0,0l89.46,184.68C-68.02,377.85-67.51,380.37-68.74,382.66z"/>
<path class="st0" d="M-361.28,172.94L-361.28,172.94c-3.57-1.64-5.11-4.63-4.38-8.38c0.42-2.12,1.77-3.89,3.67-4.93l-0.01-0.01
	c14.17-8.89,23.64-24.78,23.64-42.88c0-27.33-21.58-49.65-48.39-50.39v-0.02h-114.92v226.68h114.92V293
	c33.81-0.74,61.09-28.76,61.09-63.1C-325.66,204.81-340.24,183.1-361.28,172.94z M-498.04,84.92c0-8.69,7.04-14.96,14.88-14.96
	h95.03c25.44,0,46.14,20.98,46.14,46.78s-20.7,46.78-46.14,46.78h-109.91V84.92z M-388.13,263.98h-109.91v-68.15h109.91
	c18.43,0,33.43,15.28,33.43,34.07S-369.69,263.98-388.13,263.98z"/>
<g>
	<path class="st0" d="M197.4,63.16c-1.9-3.91-6.6-5.55-10.51-3.65c-1.89,0.91-3.19,2.51-3.98,4.31l-57.78,119.74l130.88,0
		L197.4,63.16z M234.66,179.67c-0.59,1.11-1.57,1.93-2.83,1.93H128.26L179.4,75.61l0,0.03c0.63-1.16,1.85-1.94,3.26-1.94
		c1.46,0,2.73,0.85,3.33,2.08l0,0l48.49,100.1C235.05,177.06,235.33,178.43,234.66,179.67z"/>
	<path class="st0" d="M76.09,65.99L76.09,65.99c-1.93-0.89-2.77-2.51-2.37-4.54c0.23-1.15,0.96-2.11,1.99-2.67l0-0.01
		c7.68-4.82,12.81-13.43,12.81-23.24c0-14.81-11.7-26.91-26.23-27.31V8.21H0v122.87h62.29v-0.01c18.33-0.4,33.11-15.59,33.11-34.2
		C95.4,83.27,87.5,71.5,76.09,65.99z M1.97,18.28c0-4.71,3.82-8.11,8.07-8.11h51.51c13.79,0,25.01,11.37,25.01,25.35
		S75.33,60.88,61.54,60.88H1.97V18.28z M61.54,115.34H1.97V78.4h59.57c9.99,0,18.12,8.28,18.12,18.47S71.53,115.34,61.54,115.34z"/>
</g>
</svg>
